<svg width="60" height="31" viewBox="0 0 60 31" fill="none" xmlns="http://www.w3.org/2000/svg">
<path fill-rule="evenodd" clip-rule="evenodd" d="M56 31C58.2091 31 60 29.2091 60 27L60 10.8384C60 8.62928 58.2091 6.83842 56 6.83842L34.2133 6.83841L31.7864 2.02061C31.0474 0.55364 28.953 0.55364 28.214 2.02061L25.7871 6.83841L4 6.83841C1.79087 6.83841 1.95571e-06 8.62928 1.76258e-06 10.8384L3.49691e-07 27C1.56562e-07 29.2091 1.79086 31 4 31L56 31Z" fill="#DE994A"/>
<path d="M10.52 17.496C10.724 17.052 10.952 16.32 11.18 15.72L10.568 15.492C10.472 16.02 10.256 16.836 10.076 17.328L10.52 17.496ZM8.192 15.66C8.384 16.224 8.516 16.968 8.54 17.448L9.08 17.28C9.056 16.824 8.888 16.08 8.696 15.528L8.192 15.66ZM8.096 15.108H9.26V17.868H8.096V15.108ZM11.204 17.868H9.98V15.108H11.204V17.868ZM6.98 22.02C8.384 21.936 10.376 21.84 12.284 21.708L12.32 20.82C11.588 20.856 10.844 20.892 10.124 20.928V20.196H12.116V19.332H10.124V18.648H12.08V14.328H7.256V18.648H9.128V19.332H7.208V20.196H9.128V20.976C8.3 21.012 7.544 21.036 6.932 21.06L6.98 22.02ZM7.448 24.948C7.952 24.408 8.156 23.496 8.288 22.62L7.52 22.416C7.412 23.208 7.172 24.06 6.716 24.552L7.448 24.948ZM8.54 22.452C8.684 23.124 8.792 23.976 8.792 24.54L9.536 24.444C9.536 23.88 9.416 23.028 9.236 22.38L8.54 22.452ZM9.692 22.404C9.944 23.028 10.184 23.832 10.244 24.36L10.964 24.192C10.88 23.664 10.64 22.872 10.376 22.272L9.692 22.404ZM10.844 22.272C11.228 22.836 11.624 23.616 11.78 24.132L12.512 23.82C12.344 23.316 11.936 22.56 11.516 22.008L10.844 22.272ZM16.328 23.4H13.664V20.58H16.328V23.4ZM17.84 17.508V16.476H15.392V13.944H14.312V19.56H12.644V24.936H13.664V24.42H16.328V24.888H17.384V19.56H15.392V17.508H17.84ZM20.348 17.052V16.692H21.32V17.052H20.348ZM20.348 15.9H21.32V16.26H20.348V15.9ZM23.24 15.9V16.26H22.196V15.9H23.24ZM23.24 17.052H22.196V16.692H23.24V17.052ZM21.32 19.164H20.36V18.564H19.568V19.776H24.044V18.564H23.228V19.164H22.196V18.432H24.452V17.844H22.196V17.496H24.032V16.44C24.2 16.608 24.38 16.812 24.464 16.932C25.772 16.488 26.096 15.78 26.108 15.072H27.428V15.408C27.428 16.248 27.608 16.584 28.46 16.584H29.276C29.504 16.584 29.768 16.584 29.912 16.524C29.888 16.284 29.864 15.948 29.852 15.708C29.696 15.744 29.408 15.756 29.252 15.756H28.58C28.412 15.756 28.388 15.672 28.388 15.42V14.292H25.184V14.964C25.184 15.42 25.004 15.816 24.032 16.164V15.456H22.196V15.108H24.38V14.496H22.196V13.932H21.32V14.496H19.232V15.108H21.32V15.456H19.58V17.496H21.32V17.844H18.992V18.432H21.32V19.164ZM24.992 21.996H28.712V21.276H24.992V20.724C26.468 20.652 27.86 20.532 28.94 20.376L28.22 19.788C26.3 20.076 22.532 20.184 19.496 20.136C19.568 20.316 19.664 20.616 19.664 20.796C21.008 20.82 22.472 20.82 23.888 20.772V21.276H19.94V21.996H23.888V22.5H18.908V23.256H23.888V23.904C23.888 24.06 23.828 24.108 23.636 24.12C23.456 24.132 22.76 24.132 22.112 24.108C22.244 24.348 22.412 24.696 22.472 24.96C23.42 24.96 24.032 24.96 24.452 24.828C24.86 24.684 24.992 24.468 24.992 23.928V23.256H29.984V22.5H24.992V21.996ZM27.848 17.58C27.608 17.88 27.284 18.144 26.924 18.36C26.54 18.132 26.204 17.868 25.964 17.58H27.848ZM28.58 16.812L28.4 16.848H24.92V17.58H25.652L25.076 17.772C25.34 18.144 25.664 18.456 26.048 18.756C25.472 18.96 24.812 19.104 24.128 19.188C24.272 19.368 24.44 19.704 24.524 19.92C25.376 19.776 26.18 19.56 26.876 19.248C27.632 19.62 28.52 19.896 29.492 20.04C29.612 19.788 29.864 19.44 30.056 19.248C29.216 19.152 28.436 18.984 27.752 18.732C28.352 18.3 28.808 17.736 29.108 16.992L28.58 16.812ZM32.648 16.296H40.436V17.988H41.576V15.24H37.376C37.232 14.832 36.956 14.268 36.704 13.824L35.6 14.148C35.768 14.484 35.96 14.892 36.08 15.24H31.556V17.988H32.648V16.296ZM37.124 21.432H40.556V20.388H37.124V18.648H39.956V17.592H33.2V18.648H35.972V23.22C35.132 22.848 34.46 22.212 34.028 21.084C34.148 20.616 34.232 20.1 34.304 19.572L33.176 19.452C32.936 21.564 32.324 23.244 31.016 24.228C31.268 24.396 31.736 24.78 31.904 24.984C32.648 24.336 33.212 23.484 33.608 22.464C34.7 24.372 36.416 24.768 38.78 24.768H41.648C41.696 24.432 41.876 23.904 42.056 23.64C41.372 23.652 39.368 23.652 38.84 23.652C38.228 23.652 37.652 23.628 37.124 23.532V21.432ZM51.08 15.66C50.96 15.144 50.708 14.4 50.48 13.812L49.424 14.076C49.652 14.676 49.892 15.468 49.976 15.972L51.08 15.66ZM53.636 16.032H47.096V17.112H53.636V16.032ZM49.712 22.608C49.592 21.396 49.22 19.308 48.848 17.688L47.852 17.916C48.188 19.548 48.512 21.684 48.608 22.932L49.712 22.608ZM46.004 13.98C45.368 15.732 44.3 17.484 43.16 18.6C43.352 18.864 43.676 19.464 43.784 19.728C44.12 19.38 44.456 18.984 44.768 18.54V24.924H45.896V16.788C46.34 15.984 46.748 15.144 47.06 14.304L46.004 13.98ZM51.812 23.388C52.244 21.852 52.7 19.62 53.024 17.808L51.86 17.616C51.656 19.38 51.212 21.804 50.78 23.388H46.616V24.456H54.08V23.388H51.812Z" fill="white"/>
</svg>
